<?xml version="1.0" encoding="utf-8" standalone="no"?>
<!DOCTYPE svg PUBLIC "-//W3C//DTD SVG 1.1//EN"
  "http://www.w3.org/Graphics/SVG/1.1/DTD/svg11.dtd">
<svg xmlns:xlink="http://www.w3.org/1999/xlink" width="838.1875pt" height="460.230937pt" viewBox="0 0 838.1875 460.230937" xmlns="http://www.w3.org/2000/svg" version="1.1">
 <metadata>
  <rdf:RDF xmlns:dc="http://purl.org/dc/elements/1.1/" xmlns:cc="http://creativecommons.org/ns#" xmlns:rdf="http://www.w3.org/1999/02/22-rdf-syntax-ns#">
   <cc:Work>
    <dc:type rdf:resource="http://purl.org/dc/dcmitype/StillImage"/>
    <dc:format>image/svg+xml</dc:format>
    <dc:creator>
     <cc:Agent>
      <dc:title>Matplotlib v3.10.5, https://matplotlib.org/</dc:title>
     </cc:Agent>
    </dc:creator>
   </cc:Work>
  </rdf:RDF>
 </metadata>
 <defs>
  <style type="text/css">*{stroke-linejoin: round; stroke-linecap: butt}</style>
 </defs>
 <g id="figure_1">
  <g id="patch_1">
   <path d="M 0 460.230937
L 838.1875 460.230937
L 838.1875 0
L 0 0
z
" style="fill: #ffffff"/>
  </g>
  <g id="axes_1">
   <g id="patch_2">
    <path d="M 51.1 415.530937
L 830.9875 415.530937
L 830.9875 35.730937
L 51.1 35.730937
z
" style="fill: #fbfcfe"/>
   </g>
   <g id="matplotlib.axis_1">
    <g id="xtick_1">
     <g id="line2d_1">
      <defs>
       <path id="m162732defb" d="M 0 0
L 0 3.5
" style="stroke: #5f6b7a; stroke-width: 0.8"/>
      </defs>
      <g>
       <use xlink:href="#m162732defb" x="68.665034" y="415.530937" style="fill: #5f6b7a; stroke: #5f6b7a; stroke-width: 0.8"/>
      </g>
     </g>
     <g id="text_1">
      <text style="font-size: 10px; font-family: 'Noto Sans CJK JP'; text-anchor: middle; fill: #5f6b7a" x="68.665034" y="430.490312" transform="rotate(-0 68.665034 430.490312)">25</text>
     </g>
    </g>
    <g id="xtick_2">
     <g id="line2d_2">
      <g>
       <use xlink:href="#m162732defb" x="156.490203" y="415.530937" style="fill: #5f6b7a; stroke: #5f6b7a; stroke-width: 0.8"/>
      </g>
     </g>
     <g id="text_2">
      <text style="font-size: 10px; font-family: 'Noto Sans CJK JP'; text-anchor: middle; fill: #5f6b7a" x="156.490203" y="430.490312" transform="rotate(-0 156.490203 430.490312)">50</text>
     </g>
    </g>
    <g id="xtick_3">
     <g id="line2d_3">
      <g>
       <use xlink:href="#m162732defb" x="244.315372" y="415.530937" style="fill: #5f6b7a; stroke: #5f6b7a; stroke-width: 0.8"/>
      </g>
     </g>
     <g id="text_3">
      <text style="font-size: 10px; font-family: 'Noto Sans CJK JP'; text-anchor: middle; fill: #5f6b7a" x="244.315372" y="430.490312" transform="rotate(-0 244.315372 430.490312)">75</text>
     </g>
    </g>
    <g id="xtick_4">
     <g id="line2d_4">
      <g>
       <use xlink:href="#m162732defb" x="332.140541" y="415.530937" style="fill: #5f6b7a; stroke: #5f6b7a; stroke-width: 0.8"/>
      </g>
     </g>
     <g id="text_4">
      <text style="font-size: 10px; font-family: 'Noto Sans CJK JP'; text-anchor: middle; fill: #5f6b7a" x="332.140541" y="430.490312" transform="rotate(-0 332.140541 430.490312)">100</text>
     </g>
    </g>
    <g id="xtick_5">
     <g id="line2d_5">
      <g>
       <use xlink:href="#m162732defb" x="419.965709" y="415.530937" style="fill: #5f6b7a; stroke: #5f6b7a; stroke-width: 0.8"/>
      </g>
     </g>
     <g id="text_5">
      <text style="font-size: 10px; font-family: 'Noto Sans CJK JP'; text-anchor: middle; fill: #5f6b7a" x="419.965709" y="430.490312" transform="rotate(-0 419.965709 430.490312)">125</text>
     </g>
    </g>
    <g id="xtick_6">
     <g id="line2d_6">
      <g>
       <use xlink:href="#m162732defb" x="507.790878" y="415.530937" style="fill: #5f6b7a; stroke: #5f6b7a; stroke-width: 0.8"/>
      </g>
     </g>
     <g id="text_6">
      <text style="font-size: 10px; font-family: 'Noto Sans CJK JP'; text-anchor: middle; fill: #5f6b7a" x="507.790878" y="430.490312" transform="rotate(-0 507.790878 430.490312)">150</text>
     </g>
    </g>
    <g id="xtick_7">
     <g id="line2d_7">
      <g>
       <use xlink:href="#m162732defb" x="595.616047" y="415.530937" style="fill: #5f6b7a; stroke: #5f6b7a; stroke-width: 0.8"/>
      </g>
     </g>
     <g id="text_7">
      <text style="font-size: 10px; font-family: 'Noto Sans CJK JP'; text-anchor: middle; fill: #5f6b7a" x="595.616047" y="430.490312" transform="rotate(-0 595.616047 430.490312)">175</text>
     </g>
    </g>
    <g id="xtick_8">
     <g id="line2d_8">
      <g>
       <use xlink:href="#m162732defb" x="683.441216" y="415.530937" style="fill: #5f6b7a; stroke: #5f6b7a; stroke-width: 0.8"/>
      </g>
     </g>
     <g id="text_8">
      <text style="font-size: 10px; font-family: 'Noto Sans CJK JP'; text-anchor: middle; fill: #5f6b7a" x="683.441216" y="430.490312" transform="rotate(-0 683.441216 430.490312)">200</text>
     </g>
    </g>
    <g id="xtick_9">
     <g id="line2d_9">
      <g>
       <use xlink:href="#m162732defb" x="771.266385" y="415.530937" style="fill: #5f6b7a; stroke: #5f6b7a; stroke-width: 0.8"/>
      </g>
     </g>
     <g id="text_9">
      <text style="font-size: 10px; font-family: 'Noto Sans CJK JP'; text-anchor: middle; fill: #5f6b7a" x="771.266385" y="430.490312" transform="rotate(-0 771.266385 430.490312)">225</text>
     </g>
    </g>
    <g id="text_10">
     <text style="font-size: 10px; font-family: 'Noto Sans CJK JP'; text-anchor: middle" x="441.04375" y="450.740312" transform="rotate(-0 441.04375 450.740312)">累计环境步数（千步）</text>
    </g>
   </g>
   <g id="matplotlib.axis_2">
    <g id="ytick_1">
     <g id="line2d_10">
      <path d="M 51.1 394.106322
L 830.9875 394.106322
" clip-path="url(#p1b84a3f803)" style="fill: none; stroke: #e4e9f0; stroke-width: 0.9; stroke-linecap: square"/>
     </g>
     <g id="line2d_11">
      <defs>
       <path id="mc5b4e3424c" d="M 0 0
L -3.5 0
" style="stroke: #5f6b7a; stroke-width: 0.8"/>
      </defs>
      <g>
       <use xlink:href="#mc5b4e3424c" x="51.1" y="394.106322" style="fill: #5f6b7a; stroke: #5f6b7a; stroke-width: 0.8"/>
      </g>
     </g>
     <g id="text_11">
      <text style="font-size: 10px; font-family: 'Noto Sans CJK JP'; text-anchor: end; fill: #5f6b7a" x="44.1" y="398.08601" transform="rotate(-0 44.1 398.08601)">0</text>
     </g>
    </g>
    <g id="ytick_2">
     <g id="line2d_12">
      <path d="M 51.1 355.152476
L 830.9875 355.152476
" clip-path="url(#p1b84a3f803)" style="fill: none; stroke: #e4e9f0; stroke-width: 0.9; stroke-linecap: square"/>
     </g>
     <g id="line2d_13">
      <g>
       <use xlink:href="#mc5b4e3424c" x="51.1" y="355.152476" style="fill: #5f6b7a; stroke: #5f6b7a; stroke-width: 0.8"/>
      </g>
     </g>
     <g id="text_12">
      <text style="font-size: 10px; font-family: 'Noto Sans CJK JP'; text-anchor: end; fill: #5f6b7a" x="44.1" y="359.132163" transform="rotate(-0 44.1 359.132163)">100</text>
     </g>
    </g>
    <g id="ytick_3">
     <g id="line2d_14">
      <path d="M 51.1 316.19863
L 830.9875 316.19863
" clip-path="url(#p1b84a3f803)" style="fill: none; stroke: #e4e9f0; stroke-width: 0.9; stroke-linecap: square"/>
     </g>
     <g id="line2d_15">
      <g>
       <use xlink:href="#mc5b4e3424c" x="51.1" y="316.19863" style="fill: #5f6b7a; stroke: #5f6b7a; stroke-width: 0.8"/>
      </g>
     </g>
     <g id="text_13">
      <text style="font-size: 10px; font-family: 'Noto Sans CJK JP'; text-anchor: end; fill: #5f6b7a" x="44.1" y="320.178317" transform="rotate(-0 44.1 320.178317)">200</text>
     </g>
    </g>
    <g id="ytick_4">
     <g id="line2d_16">
      <path d="M 51.1 277.244784
L 830.9875 277.244784
" clip-path="url(#p1b84a3f803)" style="fill: none; stroke: #e4e9f0; stroke-width: 0.9; stroke-linecap: square"/>
     </g>
     <g id="line2d_17">
      <g>
       <use xlink:href="#mc5b4e3424c" x="51.1" y="277.244784" style="fill: #5f6b7a; stroke: #5f6b7a; stroke-width: 0.8"/>
      </g>
     </g>
     <g id="text_14">
      <text style="font-size: 10px; font-family: 'Noto Sans CJK JP'; text-anchor: end; fill: #5f6b7a" x="44.1" y="281.224471" transform="rotate(-0 44.1 281.224471)">300</text>
     </g>
    </g>
    <g id="ytick_5">
     <g id="line2d_18">
      <path d="M 51.1 238.290937
L 830.9875 238.290937
" clip-path="url(#p1b84a3f803)" style="fill: none; stroke: #e4e9f0; stroke-width: 0.9; stroke-linecap: square"/>
     </g>
     <g id="line2d_19">
      <g>
       <use xlink:href="#mc5b4e3424c" x="51.1" y="238.290937" style="fill: #5f6b7a; stroke: #5f6b7a; stroke-width: 0.8"/>
      </g>
     </g>
     <g id="text_15">
      <text style="font-size: 10px; font-family: 'Noto Sans CJK JP'; text-anchor: end; fill: #5f6b7a" x="44.1" y="242.270625" transform="rotate(-0 44.1 242.270625)">400</text>
     </g>
    </g>
    <g id="ytick_6">
     <g id="line2d_20">
      <path d="M 51.1 199.337091
L 830.9875 199.337091
" clip-path="url(#p1b84a3f803)" style="fill: none; stroke: #e4e9f0; stroke-width: 0.9; stroke-linecap: square"/>
     </g>
     <g id="line2d_21">
      <g>
       <use xlink:href="#mc5b4e3424c" x="51.1" y="199.337091" style="fill: #5f6b7a; stroke: #5f6b7a; stroke-width: 0.8"/>
      </g>
     </g>
     <g id="text_16">
      <text style="font-size: 10px; font-family: 'Noto Sans CJK JP'; text-anchor: end; fill: #5f6b7a" x="44.1" y="203.316779" transform="rotate(-0 44.1 203.316779)">500</text>
     </g>
    </g>
    <g id="ytick_7">
     <g id="line2d_22">
      <path d="M 51.1 160.383245
L 830.9875 160.383245
" clip-path="url(#p1b84a3f803)" style="fill: none; stroke: #e4e9f0; stroke-width: 0.9; stroke-linecap: square"/>
     </g>
     <g id="line2d_23">
      <g>
       <use xlink:href="#mc5b4e3424c" x="51.1" y="160.383245" style="fill: #5f6b7a; stroke: #5f6b7a; stroke-width: 0.8"/>
      </g>
     </g>
     <g id="text_17">
      <text style="font-size: 10px; font-family: 'Noto Sans CJK JP'; text-anchor: end; fill: #5f6b7a" x="44.1" y="164.362933" transform="rotate(-0 44.1 164.362933)">600</text>
     </g>
    </g>
    <g id="ytick_8">
     <g id="line2d_24">
      <path d="M 51.1 121.429399
L 830.9875 121.429399
" clip-path="url(#p1b84a3f803)" style="fill: none; stroke: #e4e9f0; stroke-width: 0.9; stroke-linecap: square"/>
     </g>
     <g id="line2d_25">
      <g>
       <use xlink:href="#mc5b4e3424c" x="51.1" y="121.429399" style="fill: #5f6b7a; stroke: #5f6b7a; stroke-width: 0.8"/>
      </g>
     </g>
     <g id="text_18">
      <text style="font-size: 10px; font-family: 'Noto Sans CJK JP'; text-anchor: end; fill: #5f6b7a" x="44.1" y="125.409087" transform="rotate(-0 44.1 125.409087)">700</text>
     </g>
    </g>
    <g id="ytick_9">
     <g id="line2d_26">
      <path d="M 51.1 82.475553
L 830.9875 82.475553
" clip-path="url(#p1b84a3f803)" style="fill: none; stroke: #e4e9f0; stroke-width: 0.9; stroke-linecap: square"/>
     </g>
     <g id="line2d_27">
      <g>
       <use xlink:href="#mc5b4e3424c" x="51.1" y="82.475553" style="fill: #5f6b7a; stroke: #5f6b7a; stroke-width: 0.8"/>
      </g>
     </g>
     <g id="text_19">
      <text style="font-size: 10px; font-family: 'Noto Sans CJK JP'; text-anchor: end; fill: #5f6b7a" x="44.1" y="86.45524" transform="rotate(-0 44.1 86.45524)">800</text>
     </g>
    </g>
    <g id="ytick_10">
     <g id="line2d_28">
      <path d="M 51.1 43.521707
L 830.9875 43.521707
" clip-path="url(#p1b84a3f803)" style="fill: none; stroke: #e4e9f0; stroke-width: 0.9; stroke-linecap: square"/>
     </g>
     <g id="line2d_29">
      <g>
       <use xlink:href="#mc5b4e3424c" x="51.1" y="43.521707" style="fill: #5f6b7a; stroke: #5f6b7a; stroke-width: 0.8"/>
      </g>
     </g>
     <g id="text_20">
      <text style="font-size: 10px; font-family: 'Noto Sans CJK JP'; text-anchor: end; fill: #5f6b7a" x="44.1" y="47.501394" transform="rotate(-0 44.1 47.501394)">900</text>
     </g>
    </g>
    <g id="text_21">
     <text style="font-size: 10px; font-family: 'Noto Sans CJK JP'; text-anchor: middle" x="15.159375" y="225.630937" transform="rotate(-90 15.159375 225.630937)">单回合得分</text>
    </g>
   </g>
   <g id="line2d_30">
    <path d="M 75.691047 276.076168
L 170.54223 276.076168
L 170.54223 237.122322
L 230.74814 237.122322
L 230.74814 83.644168
L 325.599322 83.644168
L 325.599322 83.644168
L 420.450504 83.644168
L 420.450504 83.644168
L 422.1508 83.644168
L 422.1508 83.644168
L 432.731976 83.644168
L 432.731976 83.644168
L 527.583158 83.644168
L 527.583158 83.644168
L 558.508157 83.644168
L 558.508157 83.644168
L 589.433155 83.644168
L 589.433155 83.644168
L 620.358154 83.644168
L 620.358154 83.644168
L 651.894416 83.644168
L 651.894416 83.644168
L 684.723464 83.644168
L 684.723464 83.644168
L 757.126533 83.644168
L 757.126533 69.620784
L 810.808789 69.620784
L 810.808789 69.620784
" clip-path="url(#p1b84a3f803)" style="fill: none; stroke: #315ef5; stroke-width: 2.8; stroke-linecap: square"/>
   </g>
   <g id="patch_3">
    <path d="M 51.1 415.530937
L 51.1 35.730937
" style="fill: none; stroke: #ccd4df; stroke-width: 0.8; stroke-linejoin: miter; stroke-linecap: square"/>
   </g>
   <g id="patch_4">
    <path d="M 51.1 415.530937
L 830.9875 415.530937
" style="fill: none; stroke: #ccd4df; stroke-width: 0.8; stroke-linejoin: miter; stroke-linecap: square"/>
   </g>
   <g id="line2d_31">
    <path d="M 75.691047 276.076168
L 170.54223 237.122322
L 230.74814 83.644168
L 325.599322 230.11063
L 420.450504 232.058322
L 422.1508 394.106322
L 432.731976 383.199245
L 527.583158 232.058322
L 558.508157 232.058322
L 589.433155 232.058322
L 620.358154 232.058322
L 651.894416 232.447861
L 684.723464 227.773399
L 757.126533 69.620784
L 810.808789 106.237399
" clip-path="url(#p1b84a3f803)" style="fill: none; stroke: #8b98aa; stroke-width: 1.8; stroke-linecap: square"/>
    <defs>
     <path id="m204d949baa" d="M 0 2.75
C 0.729309 2.75 1.428845 2.460243 1.944544 1.944544
C 2.460243 1.428845 2.75 0.729309 2.75 0
C 2.75 -0.729309 2.460243 -1.428845 1.944544 -1.944544
C 1.428845 -2.460243 0.729309 -2.75 0 -2.75
C -0.729309 -2.75 -1.428845 -2.460243 -1.944544 -1.944544
C -2.460243 -1.428845 -2.75 -0.729309 -2.75 0
C -2.75 0.729309 -2.460243 1.428845 -1.944544 1.944544
C -1.428845 2.460243 -0.729309 2.75 0 2.75
z
" style="stroke: #8b98aa; stroke-width: 1.6"/>
    </defs>
    <g clip-path="url(#p1b84a3f803)">
     <use xlink:href="#m204d949baa" x="75.691047" y="276.076168" style="fill: #ffffff; stroke: #8b98aa; stroke-width: 1.6"/>
     <use xlink:href="#m204d949baa" x="170.54223" y="237.122322" style="fill: #ffffff; stroke: #8b98aa; stroke-width: 1.6"/>
     <use xlink:href="#m204d949baa" x="230.74814" y="83.644168" style="fill: #ffffff; stroke: #8b98aa; stroke-width: 1.6"/>
     <use xlink:href="#m204d949baa" x="325.599322" y="230.11063" style="fill: #ffffff; stroke: #8b98aa; stroke-width: 1.6"/>
     <use xlink:href="#m204d949baa" x="420.450504" y="232.058322" style="fill: #ffffff; stroke: #8b98aa; stroke-width: 1.6"/>
     <use xlink:href="#m204d949baa" x="422.1508" y="394.106322" style="fill: #ffffff; stroke: #8b98aa; stroke-width: 1.6"/>
     <use xlink:href="#m204d949baa" x="432.731976" y="383.199245" style="fill: #ffffff; stroke: #8b98aa; stroke-width: 1.6"/>
     <use xlink:href="#m204d949baa" x="527.583158" y="232.058322" style="fill: #ffffff; stroke: #8b98aa; stroke-width: 1.6"/>
     <use xlink:href="#m204d949baa" x="558.508157" y="232.058322" style="fill: #ffffff; stroke: #8b98aa; stroke-width: 1.6"/>
     <use xlink:href="#m204d949baa" x="589.433155" y="232.058322" style="fill: #ffffff; stroke: #8b98aa; stroke-width: 1.6"/>
     <use xlink:href="#m204d949baa" x="620.358154" y="232.058322" style="fill: #ffffff; stroke: #8b98aa; stroke-width: 1.6"/>
     <use xlink:href="#m204d949baa" x="651.894416" y="232.447861" style="fill: #ffffff; stroke: #8b98aa; stroke-width: 1.6"/>
     <use xlink:href="#m204d949baa" x="684.723464" y="227.773399" style="fill: #ffffff; stroke: #8b98aa; stroke-width: 1.6"/>
     <use xlink:href="#m204d949baa" x="757.126533" y="69.620784" style="fill: #ffffff; stroke: #8b98aa; stroke-width: 1.6"/>
     <use xlink:href="#m204d949baa" x="810.808789" y="106.237399" style="fill: #ffffff; stroke: #8b98aa; stroke-width: 1.6"/>
    </g>
   </g>
   <g id="patch_5">
    <path d="M 91.652988 263.325478
Q 84.453358 269.076674 77.253728 274.827871
" style="fill: none; stroke: #b0bac8; stroke-width: 0.9; stroke-linecap: round"/>
   </g>
   <g id="text_22">
    <text style="font-size: 10px; font-family: 'Noto Sans CJK JP'; text-anchor: start; fill: #273142" x="82.691047" y="257.785543" transform="rotate(-0 82.691047 257.785543)">基线 303</text>
   </g>
   <g id="patch_6">
    <path d="M 257.459588 102.490368
Q 244.920663 93.643559 232.381738 84.79675
" style="fill: none; stroke: #b0bac8; stroke-width: 0.9; stroke-linecap: round"/>
   </g>
   <g id="text_23">
    <text style="font-size: 10px; font-family: 'Noto Sans CJK JP'; text-anchor: start; fill: #273142" x="239.74814" y="113.603543" transform="rotate(-0 239.74814 113.603543)">首次突破 797</text>
   </g>
   <g id="patch_7">
    <path d="M 407.718029 379.528761
Q 414.23057 386.106636 420.743111 392.684512
" style="fill: none; stroke: #b0bac8; stroke-width: 0.9; stroke-linecap: round"/>
   </g>
   <g id="text_24">
    <text style="font-size: 10px; font-family: 'Noto Sans CJK JP'; text-anchor: end; fill: #273142" x="413.1508" y="373.815697" transform="rotate(-0 413.1508 373.815697)">探测 0</text>
   </g>
   <g id="patch_8">
    <path d="M 732.925115 54.67478
Q 744.17647 61.623248 755.427825 68.571717
" style="fill: none; stroke: #b0bac8; stroke-width: 0.9; stroke-linecap: round"/>
   </g>
   <g id="text_25">
    <text style="font-size: 10px; font-family: 'Noto Sans CJK JP'; text-anchor: end; fill: #273142" x="749.126533" y="49.330159" transform="rotate(-0 749.126533 49.330159)">最终保留 833</text>
   </g>
   <g id="patch_9">
    <path d="M 777.574918 129.104268
Q 793.366281 118.238876 809.157643 107.373485
" style="fill: none; stroke: #b0bac8; stroke-width: 0.9; stroke-linecap: round"/>
   </g>
   <g id="text_26">
    <text style="font-size: 10px; font-family: 'Noto Sans CJK JP'; text-anchor: end; fill: #273142" x="802.808789" y="140.196774" transform="rotate(-0 802.808789 140.196774)">第 15 轮回退 739</text>
   </g>
   <g id="text_27">
    <text style="font-size: 17px; font-family: 'Noto Sans CJK JP'; text-anchor: start" x="51.1" y="20.730937" transform="rotate(-0 51.1 20.730937)">Breakout 自进化的 15 次评测</text>
   </g>
   <g id="PathCollection_1">
    <defs>
     <path id="m37c828fedc" d="M -0 5.09902
L 5.09902 0
L 0 -5.09902
L -5.09902 -0
z
" style="stroke: #ffffff; stroke-width: 0.9"/>
    </defs>
    <g clip-path="url(#p1b84a3f803)">
     <use xlink:href="#m37c828fedc" x="422.1508" y="394.106322" style="fill: #dc7b29; stroke: #ffffff; stroke-width: 0.9"/>
     <use xlink:href="#m37c828fedc" x="432.731976" y="383.199245" style="fill: #dc7b29; stroke: #ffffff; stroke-width: 0.9"/>
    </g>
   </g>
   <g id="legend_1">
    <g id="line2d_32">
     <path d="M 557.9875 400.740312
L 567.9875 400.740312
L 577.9875 400.740312
" style="fill: none; stroke: #8b98aa; stroke-width: 1.8; stroke-linecap: square"/>
     <g>
      <use xlink:href="#m204d949baa" x="567.9875" y="400.740312" style="fill: #ffffff; stroke: #8b98aa; stroke-width: 1.6"/>
     </g>
    </g>
    <g id="text_28">
     <text style="font-size: 10px; font-family: 'Noto Sans CJK JP'; text-anchor: start" x="585.9875" y="404.240312" transform="rotate(-0 585.9875 404.240312)">每轮得分</text>
    </g>
    <g id="line2d_33">
     <path d="M 645.9875 400.740312
L 655.9875 400.740312
L 655.9875 400.740312
L 665.9875 400.740312
L 665.9875 400.740312
" style="fill: none; stroke: #315ef5; stroke-width: 2.8; stroke-linecap: square"/>
    </g>
    <g id="text_29">
     <text style="font-size: 10px; font-family: 'Noto Sans CJK JP'; text-anchor: start" x="673.9875" y="404.240312" transform="rotate(-0 673.9875 404.240312)">历史最好得分</text>
    </g>
    <g id="PathCollection_2">
     <g>
      <use xlink:href="#m37c828fedc" x="763.9875" y="401.615312" style="fill: #dc7b29; stroke: #ffffff; stroke-width: 0.9"/>
     </g>
    </g>
    <g id="text_30">
     <text style="font-size: 10px; font-family: 'Noto Sans CJK JP'; text-anchor: start" x="781.9875" y="404.240312" transform="rotate(-0 781.9875 404.240312)">物理探测</text>
    </g>
   </g>
   <g id="PathCollection_3">
    <defs>
     <path id="m2b1e26c998" d="M 0 4.527693
C 1.200758 4.527693 2.352498 4.050626 3.201562 3.201562
C 4.050626 2.352498 4.527693 1.200758 4.527693 0
C 4.527693 -1.200758 4.050626 -2.352498 3.201562 -3.201562
C 2.352498 -4.050626 1.200758 -4.527693 0 -4.527693
C -1.200758 -4.527693 -2.352498 -4.050626 -3.201562 -3.201562
C -4.050626 -2.352498 -4.527693 -1.200758 -4.527693 0
C -4.527693 1.200758 -4.050626 2.352498 -3.201562 3.201562
C -2.352498 4.050626 -1.200758 4.527693 0 4.527693
z
" style="stroke: #ffffff; stroke-width: 1.2"/>
    </defs>
    <g clip-path="url(#p1b84a3f803)">
     <use xlink:href="#m2b1e26c998" x="757.126533" y="69.620784" style="fill: #315ef5; stroke: #ffffff; stroke-width: 1.2"/>
    </g>
   </g>
  </g>
 </g>
 <defs>
  <clipPath id="p1b84a3f803">
   <rect x="51.1" y="35.730937" width="779.8875" height="379.8"/>
  </clipPath>
 </defs>
</svg>
